<svg width="113" height="102" viewBox="0 0 113 102" fill="none" xmlns="http://www.w3.org/2000/svg">
<mask id="mask0_39_4" style="mask-type:alpha" maskUnits="userSpaceOnUse" x="0" y="0" width="109" height="102">
<ellipse cx="54.2667" cy="50.9778" rx="54.2667" ry="50.9778" fill="#BAB0FF"/>
</mask>
<g mask="url(#mask0_39_4)">
<rect x="-0.000137329" y="-2.46589" width="110.178" height="110.178" fill="#BAB0FF"/>
<path fill-rule="evenodd" clip-rule="evenodd" d="M108.161 55.3911C92.4009 62.8423 71.8541 67.7533 56.9081 57.0635C44.1018 47.9039 21.0097 50.2766 0.376737 55.4456C0.23196 53.9295 0.158005 52.3943 0.158005 50.8428C0.158005 22.7628 24.3832 -0.000526428 54.2665 -0.000526428C84.1497 -0.000526428 108.375 22.7628 108.375 50.8428C108.375 52.3757 108.303 53.8927 108.161 55.3911Z" fill="#A79DEA"/>
<ellipse cx="12.7924" cy="83.3698" rx="25.4889" ry="18.5" transform="rotate(-14.1445 12.7924 83.3698)" fill="#7A72DE"/>
<ellipse cx="103.683" cy="51.2585" rx="21.8543" ry="15.862" transform="rotate(-19.1435 103.683 51.2585)" fill="#7A72DE"/>
</g>
<path d="M112.678 81.9047L103.617 69.068L94.5556 82.6598L112.678 81.9047Z" fill="#BAB0FF"/>
<path d="M67.9296 60.8594C70.8249 67.7199 58.1628 71.569 54.1842 67.5766C56.5984 66.8915 59.671 66.0196 62.0179 65.0976C64.2976 63.9386 66.8463 63.7275 67.9296 60.8594Z" fill="#373180"/>
<path d="M22.4976 43.2328C22.9436 44.8178 25.8962 45.4143 28.8286 44.4803C31.7609 43.5464 33.7664 41.4025 33.3479 39.6028C32.9018 38.0179 29.9492 37.4214 27.0168 38.3553C24.0845 39.2892 22.079 41.4332 22.4976 43.2328Z" fill="#373180"/>
<path d="M58.7685 30.0773C59.2145 31.6622 62.1672 32.2587 65.0995 31.3248C68.0318 30.3909 70.0373 28.2469 69.6188 26.4472C69.1727 24.8623 66.2201 24.2658 63.2878 25.1997C60.3554 26.1337 58.3499 28.2776 58.7685 30.0773Z" fill="#373180"/>
<path d="M28.6696 54.9434C30.2922 56.0261 38.0506 62.4882 38.6531 59.5032C39.4723 56.5459 38.8303 52.964 38.594 49.6527C38.3262 48.306 39.3856 46.9106 40.7128 46.8619C41.5792 46.9729 42.4456 47.0839 42.9851 48.0279C45.6829 52.7481 47.7269 59.1344 44.6275 64.4244C38.2987 72.5816 28.3507 64.3079 25.4954 57.3802C24.4439 55.277 27.1022 53.4302 28.6696 54.9434Z" fill="#373180"/>
<path d="M64.9405 41.7878C66.5631 42.8706 74.3215 49.3327 74.924 46.3476C75.7432 43.3903 75.1012 39.8084 74.8649 36.4972C74.5971 35.1505 75.6565 33.7551 76.9837 33.7063C77.8501 33.8173 78.7165 33.9283 79.2561 34.8724C81.9538 39.5925 83.9978 45.9788 80.8984 51.2688C74.5697 59.4261 64.6216 51.1524 61.7663 44.2247C60.7148 42.1214 63.3731 40.2746 64.9405 41.7878Z" fill="#373180"/>
</svg>
