<svg width="535" height="241" viewBox="0 0 535 241" fill="none" xmlns="http://www.w3.org/2000/svg">
<rect width="535" height="241" fill="white"/>
<rect x="74" y="46" width="148" height="148" rx="29.3878" fill="#F3EEF5"/>
<mask id="mask0_39_2" style="mask-type:alpha" maskUnits="userSpaceOnUse" x="92" y="70" width="110" height="103">
<ellipse cx="147.178" cy="121.643" rx="54.2667" ry="50.9778" fill="#BAB0FF"/>
</mask>
<g mask="url(#mask0_39_2)">
<rect x="92.9109" y="68.1995" width="110.178" height="110.178" fill="#BAB0FF"/>
<path fill-rule="evenodd" clip-rule="evenodd" d="M201.072 126.056C185.312 133.508 164.765 138.419 149.819 127.729C137.013 118.569 113.921 120.942 93.2878 126.111C93.143 124.595 93.0691 123.06 93.0691 121.508C93.0691 93.4282 117.294 70.6648 147.178 70.6648C177.061 70.6648 201.286 93.4282 201.286 121.508C201.286 123.041 201.214 124.558 201.072 126.056Z" fill="#A79DEA"/>
<ellipse cx="105.703" cy="154.035" rx="25.4889" ry="18.5" transform="rotate(-14.1445 105.703 154.035)" fill="#7A72DE"/>
<ellipse cx="196.594" cy="121.924" rx="21.8543" ry="15.862" transform="rotate(-19.1435 196.594 121.924)" fill="#7A72DE"/>
</g>
<path d="M205.589 152.57L196.528 139.733L187.467 153.325L205.589 152.57Z" fill="#BAB0FF"/>
<path d="M160.841 131.525C163.736 138.385 151.074 142.234 147.095 138.242C149.509 137.557 152.582 136.685 154.929 135.763C157.209 134.604 159.757 134.393 160.841 131.525Z" fill="#373180"/>
<path d="M115.409 113.898C115.855 115.483 118.807 116.08 121.74 115.146C124.672 114.212 126.677 112.068 126.259 110.268C125.813 108.683 122.86 108.087 119.928 109.021C116.996 109.955 114.99 112.099 115.409 113.898Z" fill="#373180"/>
<path d="M151.68 100.743C152.126 102.328 155.078 102.924 158.011 101.99C160.943 101.056 162.948 98.9123 162.53 97.1126C162.084 95.5277 159.131 94.9312 156.199 95.8651C153.267 96.799 151.261 98.943 151.68 100.743Z" fill="#373180"/>
<path d="M121.581 125.609C123.203 126.691 130.962 133.154 131.564 130.169C132.383 127.211 131.741 123.629 131.505 120.318C131.237 118.971 132.297 117.576 133.624 117.527C134.49 117.638 135.357 117.749 135.896 118.693C138.594 123.413 140.638 129.8 137.539 135.09C131.21 143.247 121.262 134.973 118.406 128.046C117.355 125.942 120.013 124.096 121.581 125.609Z" fill="#373180"/>
<path d="M157.852 112.453C159.474 113.536 167.233 119.998 167.835 117.013C168.654 114.056 168.012 110.474 167.776 107.163C167.508 105.816 168.568 104.42 169.895 104.372C170.761 104.483 171.628 104.594 172.167 105.538C174.865 110.258 176.909 116.644 173.809 121.934C167.481 130.091 157.533 121.818 154.677 114.89C153.626 112.787 156.284 110.94 157.852 112.453Z" fill="#373180"/>
<path d="M285 128.87C285 130.294 284.644 131.841 283.931 133.509C283.24 135.157 282.141 136.785 280.636 138.392C279.13 139.979 277.207 141.271 274.868 142.268C272.528 143.264 269.802 143.763 266.689 143.763C264.329 143.763 262.182 143.539 260.25 143.092C258.317 142.644 256.557 141.952 254.97 141.016C253.403 140.06 251.959 138.809 250.637 137.263C249.457 135.859 248.449 134.292 247.615 132.563C246.781 130.813 246.15 128.952 245.723 126.978C245.316 125.005 245.113 122.909 245.113 120.691C245.113 117.09 245.632 113.866 246.669 111.017C247.727 108.169 249.233 105.738 251.186 103.724C253.139 101.689 255.428 100.143 258.052 99.0849C260.677 98.0269 263.474 97.498 266.445 97.498C270.066 97.498 273.291 98.2202 276.119 99.6647C278.947 101.109 281.114 102.9 282.619 105.036C284.125 107.152 284.878 109.156 284.878 111.048C284.878 112.085 284.511 113.001 283.779 113.794C283.046 114.588 282.161 114.985 281.124 114.985C279.964 114.985 279.089 114.71 278.499 114.161C277.93 113.611 277.289 112.665 276.577 111.323C275.397 109.105 274.003 107.447 272.396 106.348C270.809 105.249 268.845 104.7 266.506 104.7C262.783 104.7 259.812 106.114 257.595 108.942C255.397 111.77 254.299 115.788 254.299 120.997C254.299 124.476 254.787 127.375 255.764 129.694C256.74 131.993 258.124 133.712 259.914 134.852C261.704 135.991 263.8 136.561 266.201 136.561C268.805 136.561 271.002 135.92 272.792 134.638C274.603 133.336 275.966 131.434 276.882 128.931C277.268 127.751 277.747 126.795 278.316 126.063C278.886 125.31 279.801 124.933 281.063 124.933C282.141 124.933 283.067 125.31 283.84 126.063C284.613 126.815 285 127.751 285 128.87ZM312.688 139.063C310.674 140.63 308.72 141.81 306.828 142.603C304.957 143.376 302.851 143.763 300.511 143.763C298.375 143.763 296.493 143.346 294.865 142.512C293.258 141.657 292.017 140.508 291.142 139.063C290.267 137.619 289.83 136.052 289.83 134.363C289.83 132.085 290.552 130.142 291.997 128.535C293.441 126.927 295.425 125.849 297.948 125.3C298.477 125.178 299.789 124.903 301.884 124.476C303.98 124.048 305.77 123.662 307.256 123.316C308.761 122.95 310.389 122.512 312.138 122.004C312.037 119.806 311.589 118.199 310.796 117.182C310.023 116.144 308.405 115.626 305.943 115.626C303.827 115.626 302.23 115.921 301.152 116.511C300.094 117.101 299.179 117.986 298.405 119.166C297.653 120.346 297.114 121.129 296.788 121.515C296.483 121.882 295.811 122.065 294.774 122.065C293.838 122.065 293.024 121.77 292.332 121.18C291.661 120.569 291.325 119.796 291.325 118.86C291.325 117.396 291.844 115.971 292.882 114.588C293.919 113.204 295.537 112.065 297.734 111.17C299.931 110.275 302.668 109.827 305.943 109.827C309.605 109.827 312.484 110.265 314.58 111.139C316.675 111.994 318.15 113.357 319.005 115.229C319.88 117.101 320.317 119.583 320.317 122.675C320.317 124.628 320.307 126.286 320.287 127.65C320.287 129.013 320.277 130.528 320.256 132.197C320.256 133.763 320.511 135.401 321.019 137.11C321.548 138.799 321.813 139.887 321.813 140.375C321.813 141.23 321.406 142.013 320.592 142.725C319.798 143.417 318.893 143.763 317.876 143.763C317.021 143.763 316.177 143.366 315.343 142.573C314.509 141.759 313.624 140.589 312.688 139.063ZM312.138 127.009C310.918 127.456 309.138 127.934 306.798 128.443C304.478 128.931 302.871 129.298 301.976 129.542C301.081 129.765 300.226 130.223 299.413 130.915C298.599 131.586 298.192 132.532 298.192 133.753C298.192 135.015 298.67 136.093 299.626 136.988C300.582 137.863 301.834 138.3 303.38 138.3C305.028 138.3 306.544 137.944 307.927 137.232C309.331 136.5 310.358 135.564 311.009 134.424C311.762 133.163 312.138 131.088 312.138 128.199V127.009ZM327.864 138.697V102.564C327.864 100.896 328.23 99.6342 328.962 98.7797C329.715 97.9252 330.722 97.498 331.984 97.498C333.245 97.498 334.262 97.9252 335.035 98.7797C335.808 99.6139 336.195 100.875 336.195 102.564V138.697C336.195 140.386 335.798 141.657 335.005 142.512C334.232 143.346 333.225 143.763 331.984 143.763C330.763 143.763 329.766 143.326 328.993 142.451C328.24 141.576 327.864 140.325 327.864 138.697ZM371.604 127.436V138.514C371.604 140.264 371.208 141.576 370.414 142.451C369.621 143.326 368.573 143.763 367.271 143.763C366.009 143.763 364.982 143.326 364.188 142.451C363.415 141.576 363.029 140.264 363.029 138.514V125.239C363.029 123.143 362.958 121.515 362.815 120.356C362.673 119.196 362.286 118.25 361.655 117.518C361.025 116.765 360.028 116.388 358.665 116.388C355.938 116.388 354.138 117.324 353.263 119.196C352.409 121.068 351.981 123.753 351.981 127.253V138.514C351.981 140.243 351.585 141.555 350.791 142.451C350.018 143.326 348.991 143.763 347.709 143.763C346.447 143.763 345.41 143.326 344.596 142.451C343.803 141.555 343.406 140.243 343.406 138.514V114.679C343.406 113.113 343.762 111.923 344.474 111.109C345.206 110.295 346.163 109.888 347.343 109.888C348.482 109.888 349.428 110.275 350.181 111.048C350.954 111.801 351.34 112.848 351.34 114.191V114.985C352.785 113.255 354.331 111.984 355.979 111.17C357.627 110.356 359.458 109.949 361.472 109.949C363.568 109.949 365.368 110.366 366.874 111.2C368.38 112.035 369.621 113.296 370.597 114.985C372.001 113.276 373.507 112.014 375.114 111.2C376.721 110.366 378.501 109.949 380.454 109.949C382.733 109.949 384.696 110.397 386.344 111.292C387.992 112.187 389.223 113.469 390.037 115.137C390.749 116.643 391.105 119.013 391.105 122.248V138.514C391.105 140.264 390.708 141.576 389.915 142.451C389.121 143.326 388.074 143.763 386.772 143.763C385.51 143.763 384.473 143.326 383.659 142.451C382.865 141.555 382.469 140.243 382.469 138.514V124.506C382.469 122.716 382.387 121.281 382.224 120.203C382.082 119.125 381.675 118.22 381.004 117.487C380.332 116.755 379.315 116.388 377.952 116.388C376.853 116.388 375.806 116.714 374.809 117.365C373.832 118.016 373.069 118.891 372.52 119.99C371.909 121.393 371.604 123.876 371.604 127.436ZM405.945 144.801L406.708 142.939L396.454 117.121C395.824 115.636 395.508 114.557 395.508 113.886C395.508 113.174 395.691 112.513 396.058 111.902C396.424 111.292 396.922 110.804 397.553 110.438C398.204 110.071 398.875 109.888 399.567 109.888C400.767 109.888 401.673 110.275 402.283 111.048C402.894 111.801 403.433 112.889 403.901 114.313L410.95 134.821L417.634 115.748C418.163 114.201 418.641 112.991 419.068 112.116C419.495 111.241 419.943 110.651 420.411 110.346C420.899 110.041 421.581 109.888 422.455 109.888C423.086 109.888 423.686 110.061 424.256 110.407C424.846 110.733 425.294 111.18 425.599 111.75C425.924 112.319 426.087 112.92 426.087 113.55C426.006 113.937 425.873 114.486 425.69 115.198C425.507 115.91 425.283 116.633 425.019 117.365L414.155 145.808C413.219 148.31 412.303 150.273 411.408 151.698C410.513 153.122 409.323 154.21 407.837 154.963C406.373 155.736 404.389 156.123 401.886 156.123C399.445 156.123 397.614 155.858 396.393 155.329C395.173 154.8 394.562 153.834 394.562 152.43C394.562 151.474 394.847 150.731 395.417 150.202C396.007 149.694 396.871 149.439 398.011 149.439C398.458 149.439 398.896 149.5 399.323 149.622C399.852 149.744 400.31 149.805 400.696 149.805C401.652 149.805 402.405 149.663 402.955 149.378C403.504 149.093 403.992 148.595 404.419 147.883C404.867 147.191 405.376 146.164 405.945 144.801Z" fill="#363447"/>
</svg>
